<?xml version="1.0" standalone="no"?>
<!DOCTYPE svg PUBLIC "-//W3C//DTD SVG 20010904//EN"
 "http://www.w3.org/TR/2001/REC-SVG-20010904/DTD/svg10.dtd">
<svg version="1.0" xmlns="http://www.w3.org/2000/svg"
 width="70.000000pt" height="70.000000pt" viewBox="0 0 70.000000 70.000000"
 preserveAspectRatio="xMidYMid meet">
<metadata>
Created by potrace 1.14, written by Peter Selinger 2001-2017
</metadata>
<g transform="translate(0.000000,70.000000) scale(0.100000,-0.100000)"
fill="#000000" stroke="none">
<path d="M45 647 c-3 -7 -4 -145 -3 -307 l3 -295 63 -3 c50 -2 63 0 69 13 4
11 -3 24 -21 38 l-27 22 3 180 c3 152 5 180 18 180 9 0 16 -11 18 -30 2 -16
15 -40 28 -53 16 -16 23 -30 19 -42 -4 -13 2 -26 19 -41 17 -14 26 -33 26 -51
0 -17 8 -33 20 -40 30 -19 29 -110 -2 -130 -14 -10 -19 -20 -15 -32 6 -14 18
-16 69 -14 l63 3 0 305 0 305 -33 3 c-57 6 -65 -11 -60 -108 6 -92 3 -110 -17
-110 -14 0 -25 22 -25 51 0 11 -33 52 -75 94 -60 60 -81 75 -105 75 -17 0 -33
-6 -35 -13z"/>
<path d="M495 638 c-3 -7 -4 -141 -3 -298 l3 -285 53 -3 c41 -2 52 0 52 12 0
8 -9 18 -20 21 -20 6 -20 13 -18 138 3 127 4 132 25 135 14 2 23 -3 28 -17 3
-12 13 -21 21 -21 12 0 14 11 12 53 l-3 52 -40 5 -40 5 -3 68 c-2 56 0 68 14
74 11 4 23 -1 35 -15 29 -37 40 -27 37 31 l-3 52 -73 3 c-52 2 -74 -1 -77 -10z"/>
</g>
</svg>
